<svg width="58" height="58" viewBox="0 0 58 58" fill="none" xmlns="http://www.w3.org/2000/svg">
<path d="M0.170837 28.9434C0.170837 33.2968 4.42183 37.3606 11.1235 39.6514C9.78524 46.3887 10.8838 51.8191 14.5528 53.935C18.3239 56.11 23.9422 54.6045 29.2748 49.943C34.4728 54.4162 39.7261 56.1766 43.3919 54.0546C47.1597 51.8735 48.3054 46.0749 46.9302 39.1271C53.9105 36.8194 57.8151 33.3541 57.8151 28.9434C57.8151 24.691 53.5564 21.0123 46.9449 18.7363C48.4255 11.5014 47.171 6.20283 43.35 3.99951C39.6663 1.87526 34.3519 3.72673 29.0775 8.31688C23.5901 3.44488 18.3282 1.9575 14.5113 4.16694C10.8311 6.2973 9.78094 11.8266 11.1235 18.6885C4.64794 20.9462 0.170837 24.7082 0.170837 28.9434Z" fill="#F2F2F2"/>
<path d="M45.5447 20.9965C44.9998 20.8095 44.4503 20.6364 43.8967 20.4772C43.9885 20.1041 44.0734 19.7294 44.1514 19.3532C45.3988 13.2976 44.5832 8.41929 41.7978 6.81341C39.1273 5.27324 34.7597 6.87911 30.3485 10.7178C29.9138 11.0969 29.4888 11.4869 29.0739 11.8875C28.796 11.6211 28.5132 11.3599 28.2256 11.1041C23.6026 6.99919 18.9687 5.26961 16.1863 6.88025C13.5183 8.42472 12.7281 13.011 13.8511 18.7499C13.9629 19.3182 14.089 19.8836 14.2295 20.4455C13.5738 20.6317 12.9406 20.8302 12.3347 21.0413C6.91491 22.9308 3.45349 25.8925 3.45349 28.9642C3.45349 32.137 7.16912 35.3193 12.8146 37.2487C13.2724 37.4044 13.7339 37.5487 14.1989 37.6814C14.0478 38.2868 13.9137 38.8963 13.7967 39.5091C12.726 45.1482 13.5623 49.6258 16.2232 51.1608C18.9717 52.7456 23.5845 51.1166 28.0763 47.1903C28.4313 46.8799 28.7877 46.5507 29.1445 46.2056C29.594 46.6393 30.0555 47.0603 30.5284 47.4682C34.8793 51.2122 39.1763 52.724 41.835 51.185C44.5809 49.5954 45.4731 44.7853 44.3145 38.933C44.2261 38.4859 44.123 38.0294 44.0075 37.5645C44.3315 37.4689 44.6493 37.3701 44.9595 37.2673C50.8284 35.3229 54.6466 32.1794 54.6466 28.9642C54.6466 25.8814 51.0738 22.8998 45.5447 20.9965V20.9965Z" fill="#53C1DE"/>
<path d="M44.2717 35.1915C43.9919 35.2842 43.7046 35.3737 43.4118 35.4604C42.7639 33.4094 41.8894 31.2283 40.8195 28.9751C41.8406 26.7752 42.6812 24.6222 43.311 22.5842C43.8346 22.736 44.343 22.8957 44.8329 23.0645C49.5703 24.6951 52.4599 27.1064 52.4599 28.9642C52.4599 30.9432 49.339 33.5125 44.2719 35.1915H44.2717ZM42.1692 39.3578C42.6814 41.9456 42.7546 44.2853 42.4152 46.1143C42.1103 47.7578 41.4972 48.8535 40.7391 49.2923C39.1257 50.2262 35.6754 49.0123 31.9548 45.8105C31.5282 45.4435 31.0984 45.0515 30.6675 44.6369C32.11 43.0591 33.5516 41.2249 34.9586 39.1881C37.4335 38.9685 39.7717 38.6094 41.8921 38.1194C41.9963 38.5408 42.0892 38.9538 42.1692 39.3578V39.3578ZM20.9063 49.131C19.3301 49.6877 18.0747 49.7035 17.3159 49.266C15.701 48.3349 15.0299 44.7393 15.9455 39.9169C16.0543 39.347 16.179 38.7803 16.3193 38.2173C18.4161 38.681 20.7373 39.0148 23.2181 39.2159C24.6344 41.209 26.1177 43.041 27.6125 44.6453C27.2948 44.9526 26.9696 45.2521 26.6372 45.5434C24.6509 47.2798 22.6605 48.5114 20.9065 49.131H20.9063ZM13.5219 35.1793C11.0256 34.326 8.96416 33.2173 7.55109 32.0074C6.28143 30.9199 5.64026 29.8403 5.64026 28.9642C5.64026 27.1003 8.4195 24.7225 13.0547 23.1064C13.6365 22.9045 14.2241 22.7196 14.8167 22.552C15.4574 24.6357 16.2978 26.8144 17.3119 29.0175C16.2846 31.2534 15.4323 33.4667 14.7857 35.5749C14.3612 35.4534 13.9399 35.3215 13.5219 35.1793V35.1793ZM15.9973 18.3298C15.0351 13.4127 15.674 9.70369 17.2819 8.77297C18.9948 7.78153 22.7817 9.19528 26.7733 12.7394C27.0284 12.966 27.2847 13.2032 27.5414 13.4485C26.0542 15.0456 24.5845 16.8637 23.1805 18.8453C20.7728 19.0684 18.468 19.4268 16.3492 19.9069C16.2187 19.3842 16.1014 18.8583 15.9973 18.3296V18.3298ZM38.0797 23.7825C37.5792 22.918 37.0602 22.0645 36.523 21.2224C38.1565 21.4285 39.7214 21.7027 41.1909 22.0382C40.7497 23.4522 40.1999 24.9307 39.5524 26.4464C39.0793 25.5487 38.5883 24.6606 38.0797 23.7825V23.7825ZM29.0745 15.0114C30.0832 16.1041 31.0934 17.3243 32.0871 18.6481C30.0714 18.5529 28.0523 18.5524 26.0365 18.6468C27.0312 17.3352 28.05 16.1168 29.0745 15.0114V15.0114ZM20.0116 23.7975C19.5094 24.6686 19.0276 25.5513 18.5666 26.4448C17.9297 24.9344 17.3848 23.4492 16.9398 22.0151C18.4005 21.6882 19.9581 21.421 21.581 21.2183C21.0377 22.0656 20.5144 22.9256 20.0116 23.7975V23.7975ZM21.6276 36.8663C19.9511 36.6791 18.3699 36.4256 16.9097 36.1077C17.3617 34.6482 17.9186 33.1312 18.569 31.5883C19.032 32.4825 19.5159 33.3657 20.0204 34.2372C20.5352 35.1262 21.0711 36.0028 21.6276 36.8663V36.8663ZM29.135 43.0716C28.0985 41.953 27.0647 40.716 26.0549 39.3854C27.035 39.4239 28.0344 39.4434 29.0501 39.4434C30.0936 39.4434 31.1251 39.4201 32.1404 39.3748C31.1435 40.7296 30.1369 41.9685 29.135 43.0716ZM39.5732 31.5097C40.2574 33.0693 40.8342 34.5782 41.2924 36.013C39.8079 36.3517 38.2054 36.6245 36.5169 36.8271C37.058 35.9692 37.582 35.1007 38.0885 34.2221C38.6035 33.329 39.0985 32.4247 39.5732 31.5097V31.5097ZM36.194 33.1296C35.4185 34.4767 34.5995 35.7983 33.7381 37.0921C32.2192 37.2007 30.6496 37.2566 29.0501 37.2566C27.4571 37.2566 25.9074 37.207 24.415 37.1103C23.5313 35.8194 22.6967 34.4956 21.9131 33.1416C21.1331 31.7948 20.4046 30.4189 19.729 29.0168C20.4029 27.6143 21.1292 26.2376 21.9065 24.8897V24.8902C22.6836 23.542 23.5116 22.2238 24.3888 20.9385C25.9113 20.8234 27.4723 20.7631 29.0503 20.7631C30.6353 20.7631 32.1984 20.8238 33.7204 20.9398C34.5887 22.2232 35.4114 23.5368 36.187 24.8782C36.967 26.2231 37.703 27.593 38.3939 28.9857C37.7101 30.3927 36.9764 31.7748 36.1942 33.1296H36.194ZM40.7056 8.70795C42.4197 9.69667 43.0865 13.6835 42.0094 18.9119C41.9388 19.2525 41.8621 19.5918 41.7792 19.9296C39.6554 19.4395 37.349 19.0748 34.9343 18.8482C33.5276 16.8452 32.0701 15.0238 30.607 13.4474C30.9904 13.0778 31.3829 12.7177 31.7842 12.3676C35.5637 9.07838 39.0961 7.77972 40.7056 8.70795V8.70795Z" fill="#F2F2F2"/>
<path d="M29.0501 24.3929C31.5749 24.3929 33.6214 26.4396 33.6214 28.9642C33.6214 31.489 31.5749 33.5358 29.0501 33.5358C26.5255 33.5358 24.4787 31.489 24.4787 28.9642C24.4787 26.4396 26.5255 24.3929 29.0501 24.3929" fill="#53C1DE"/>
</svg>
